<svg xmlns="http://www.w3.org/2000/svg" xmlns:xlink="http://www.w3.org/1999/xlink" xmlns:lucid="lucid" width="1600.76" height="2751.54"><g transform="translate(-139.2429673869513 -70)" lucid:page-tab-id="0_0"><path d="M0 0h1870.87v3840.5H0z" fill="#fff"/><path d="M215.62 106c0 8.84-7.16 16-16 16s-16-7.16-16-16 7.16-16 16-16 16 7.16 16 16z" stroke="#5e5e5e" stroke-width="3" fill="#fff"/><path d="M199.62 122v38.8c0 3.3 1.66 8.1 3.72 10.7L240 218m-40.38-51.2L159.24 218m0-80H240" stroke="#5e5e5e" stroke-width="3" fill="none"/><path d="M159.24 96c0-3.3 2.7-6 6-6H234c3.3 0 6 2.7 6 6v138c0 3.3-2.7 6-6 6h-68.76c-3.3 0-6-2.7-6-6z" fill="none"/><use xlink:href="#a" transform="matrix(1,0,0,1,79.2429673869513,218) translate(82.32098765432099 17.77777777777778)"/><path d="M520 96c0-3.3 2.7-6 6-6h128c3.3 0 6 2.7 6 6v98c0 3.3-2.7 6-6 6H526c-3.3 0-6-2.7-6-6z" stroke="#5e5e5e" stroke-width="3" fill="#fff"/><use xlink:href="#b" transform="matrix(1,0,0,1,520,90) translate(19.62999999999999 59.0875)"/><use xlink:href="#c" transform="matrix(1,0,0,1,520,90) translate(85.48 59.0875)"/><path d="M198.12 154.85v4m0 8v8m0 8v8.02m0 8v8m0 8v8m0 8v8m0 8v8.02m0 8v8m0 8v8m0 8v8m0 8v8m0 8v8m0 8v8.02m0 8v8m0 8v8m0 8v8m0 8v8.02m0 8v8m0 8v8m0 8v8m0 8v8.02m0 8v8m0 8v8m0 8v8m0 8V543m0 8v8m0 8v8m0 8v8m0 8V607m0 8v4M198.12 154.88v-4.03M198.12 618.97V620M590 202.5v4m0 8v8.02m0 8v8.02m0 8v8.02m0 8v8.02m0 8v8.02m0 8v8.02m0 8v8.02m0 8v8.02m0 8v8.02m0 8v8.02m0 8v8.02m0 8v8.02m0 8v8m0 8.02v8m0 8.02v8m0 8.02v8m0 8.02v8m0 8.02v8m0 8.02v8m0 8.02v8m0 8.02v8m0 8.02v8m0 8.02v8m0 8.02v8m0 8.02v8m0 8.02v4" stroke="#5e5e5e" stroke-width="2" fill="none"/><path d="M591 202.53h-2v-1.03h2z" fill="#5e5e5e"/><path d="M590 618.97V620" stroke="#5e5e5e" stroke-width="2" fill="none"/><path d="M215.62 106c0 8.84-7.16 16-16 16s-16-7.16-16-16 7.16-16 16-16 16 7.16 16 16z" stroke="#5e5e5e" stroke-width="3" fill="#fff"/><path d="M199.62 122v38.8c0 3.3 1.66 8.1 3.72 10.7L240 218m-40.38-51.2L159.24 218m0-80H240" stroke="#5e5e5e" stroke-width="3" fill="none"/><path d="M159.24 96c0-3.3 2.7-6 6-6H234c3.3 0 6 2.7 6 6v138c0 3.3-2.7 6-6 6h-68.76c-3.3 0-6-2.7-6-6z" fill="none"/><use xlink:href="#a" transform="matrix(1,0,0,1,79.2429673869513,218) translate(82.32098765432099 17.77777777777778)"/><path d="M520 96c0-3.3 2.7-6 6-6h128c3.3 0 6 2.7 6 6v98c0 3.3-2.7 6-6 6H526c-3.3 0-6-2.7-6-6z" stroke="#5e5e5e" stroke-width="3" fill="#fff"/><use xlink:href="#b" transform="matrix(1,0,0,1,520,90) translate(19.62999999999999 59.0875)"/><use xlink:href="#c" transform="matrix(1,0,0,1,520,90) translate(85.48 59.0875)"/><path d="M198.12 154.85v4m0 8v8m0 8v8.02m0 8v8m0 8v8m0 8v8m0 8v8.02m0 8v8m0 8v8m0 8v8m0 8v8m0 8v8m0 8v8.02m0 8v8m0 8v8m0 8v8m0 8v8.02m0 8v8m0 8v8m0 8v8m0 8v8.02m0 8v8m0 8v8m0 8v8m0 8V543m0 8v8m0 8v8m0 8v8m0 8V607m0 8v4M198.12 154.88v-4.03M198.12 618.97V620M590 202.5v4m0 8v8.02m0 8v8.02m0 8v8.02m0 8v8.02m0 8v8.02m0 8v8.02m0 8v8.02m0 8v8.02m0 8v8.02m0 8v8.02m0 8v8.02m0 8v8.02m0 8v8m0 8.02v8m0 8.02v8m0 8.02v8m0 8.02v8m0 8.02v8m0 8.02v8m0 8.02v8m0 8.02v8m0 8.02v8m0 8.02v8m0 8.02v8m0 8.02v8m0 8.02v4" stroke="#5e5e5e" stroke-width="2" fill="none"/><path d="M591 202.53h-2v-1.03h2z" fill="#5e5e5e"/><path d="M590 618.97V620" stroke="#5e5e5e" stroke-width="2" fill="none"/><path d="M307.8 301H199.13v-2h108.7zm245.37 0H412.3v-2h140.87z" fill="#5e5e5e"/><path d="M199.15 301h-1.03v-2h1.03zM568.43 300l-14.26 4.64v-9.28z" fill="#5e5e5e"/><path d="M571.67 300l-18.5 6v-12zm-16.5 3.26L565.2 300l-10.03-3.26z" fill="#5e5e5e"/><use xlink:href="#d" transform="matrix(1,0,0,1,307.8068706663784,289.3333333333333) translate(0.005000000000002558 14.222222222222223)"/><use xlink:href="#e" transform="matrix(1,0,0,1,307.8068706663784,289.3333333333333) translate(70.0296913580247 14.222222222222223)"/><path d="M328.96 461h-92.5v-2h92.5zM589 461H479v-2h110z" fill="#5e5e5e"/><path d="M590 461h-1.03v-2H590zM235.45 464.64L221.2 460l14.25-4.64z" fill="#5e5e5e"/><path d="M236.45 466l-18.5-6 18.5-6zm-12.02-6l10.02 3.26v-6.52z" fill="#5e5e5e"/><use xlink:href="#f" transform="matrix(1,0,0,1,328.9636258395053,449.3333333333333) translate(0.0049999999999954525 14.222222222222223)"/><use xlink:href="#g" transform="matrix(1,0,0,1,328.9636258395053,449.3333333333333) translate(85.93092592592592 14.222222222222223)"/><path d="M509.87 741.47c0 8.83-7.17 16-16 16-8.84 0-16-7.17-16-16 0-8.84 7.16-16 16-16 8.83 0 16 7.16 16 16z" stroke="#5e5e5e" stroke-width="3" fill="#fff"/><path d="M493.87 757.47v38.8c0 3.3 1.88 7.9 4.2 10.28l46.08 46.92m-50.28-51.2l-50.28 51.2m0-80h100.55" stroke="#5e5e5e" stroke-width="3" fill="none"/><path d="M443.6 731.47c0-3.32 2.67-6 6-6h88.55c3.3 0 6 2.68 6 6v138c0 3.3-2.7 6-6 6H449.6c-3.33 0-6-2.7-6-6z" fill="none"/><use xlink:href="#h" transform="matrix(1,0,0,1,363.5855820290336,853.4666666666667) translate(96.02469135802468 17.77777777777778)"/><path d="M892.83 731.47c0-3.32 2.7-6 6-6h162.34c3.3 0 6 2.68 6 6v98c0 3.3-2.7 6-6 6H898.83c-3.3 0-6-2.7-6-6z" stroke="#5e5e5e" stroke-width="3" fill="#fff"/><use xlink:href="#b" transform="matrix(1,0,0,1,892.8301886792453,725.4666666666667) translate(36.62999999999999 59.0875)"/><use xlink:href="#c" transform="matrix(1,0,0,1,892.8301886792453,725.4666666666667) translate(102.48 59.0875)"/><path d="M492.37 792.52v3.98m0 7.96l-.02 7.97m0 7.96v7.96m-.02 7.96v7.97m0 7.95l-.02 7.97m0 7.96v7.97m0 7.96v7.97m-.02 7.97V908m0 7.97l-.02 7.96m0 7.97v7.96m-.02 7.97v7.96m0 7.96v7.96m-.02 7.97v7.95m0 7.97l-.02 7.96m0 7.96v7.97m-.02 7.97v7.97m0 7.96l-.02 7.97m0 7.96v7.97m-.02 7.96v7.97m0 7.96l-.02 7.96m0 7.96v7.97m0 7.95l-.02 7.96m0 7.98v7.96m-.02 7.97v7.97m0 7.97l-.02 7.96m0 7.97v7.96m-.02 7.97v7.96m0 7.97l-.02 7.96m0 7.96v7.96m-.02 7.96v4M492.37 792.54v-4.02M492 1254.44v1.03M980 837.97v4m0 8V858m0 8v8m0 8.02v8m0 8.02v8m0 8.02v8m0 8.02v8m0 8.02v8m0 8.02v8m0 8v8.02m0 8v8.02m0 8v8.02m0 8v8.02m0 8v8.02m0 8v8.02m0 8v8.02m0 8v8.02m0 8v8.02m0 8v8.02m0 8v8.02m0 8v8.02m0 8v8.02m0 8v8m0 8.02v8m0 8.02v8m0 8.02v8m0 8.02v4" stroke="#5e5e5e" stroke-width="2" fill="none"/><path d="M981 838h-2v-1.03h2z" fill="#5e5e5e"/><path d="M980 1254.44v1.03" stroke="#5e5e5e" stroke-width="2" fill="none"/><path d="M892.83 731.47c0-3.32 2.7-6 6-6h162.34c3.3 0 6 2.68 6 6v98c0 3.3-2.7 6-6 6H898.83c-3.3 0-6-2.7-6-6z" stroke="#5e5e5e" stroke-width="3" fill="#fff"/><use xlink:href="#i" transform="matrix(1,0,0,1,892.8301886792453,725.4666666666667) translate(26.104999999999997 59.0875)"/><use xlink:href="#j" transform="matrix(1,0,0,1,892.8301886792453,725.4666666666667) translate(75.95500000000001 59.0875)"/><path d="M492 790.32v3.96m0 7.92v7.92m0 7.92v7.92m0 7.92v7.92m0 7.92v7.93m0 7.92v7.92m0 7.9v7.93m0 7.92v7.92m0 7.92v7.9m0 7.93v7.92m0 7.92v7.92m0 7.9v7.93m0 7.92v7.92m0 7.92v7.9m0 7.93v7.92m0 7.92v7.92m0 7.9v7.94m0 7.92v7.92m0 7.92v7.92m0 7.92v7.92m0 7.92v7.92m0 7.92v7.92m0 7.92v7.92m0 7.92v7.92m0 7.92v7.92m0 7.92v7.92m0 7.92v7.92m0 7.92v7.92m0 7.92v7.93m0 7.92v7.92m0 7.92v7.9m0 7.93v7.92m0 7.92v7.92m0 7.9v7.93m0 7.92v7.92m0 7.92v7.9m0 7.93v7.92m0 7.92v7.92m0 7.9v7.93m0 7.92v7.92m0 7.92v7.92m0 7.92v7.92m0 7.92v7.92m0 7.92v7.92m0 7.92v7.92m0 7.92v7.92m0 7.92v3.96M492 790.35v-1.03M492 1518.97v1.03M980 837.97V842m0 8.06v8.06m0 8.06v8.06m0 8.06v8.07m0 8.06v8.06m0 8.05v8.06m0 8.07v8.06m0 8.07v8.06m0 8.06v8.06m0 8.06v8.06m0 8.06v8.06m0 8.07v8.05m0 8.06v8.07m0 8.06v8.06m0 8.05v8.07m0 8.06v8.06m0 8.06v8.06m0 8.06v8.06m0 8.07v8.06m0 8.07v8.06m0 8.06v8.05m0 8.06v8.08m0 8.06v8.06m0 8.06v8.06m0 8.06v8.06m0 8.07v8.07m0 8.06v8.06m0 8.05v8.06m0 8.07v8.06m0 8.07v8.06m0 8.06v8.06m0 8.06v8.06m0 8.06v8.07m0 8.06v8.05m0 8.06v8.07m0 8.06v8.06m0 8.06v8.06m0 8.06v8.06m0 8.06v8.06m0 8.06v8.07m0 8.05v8.06m0 8.07v4.03" stroke="#5e5e5e" stroke-width="2" fill="none"/><path d="M981 838h-2v-1.03h2z" fill="#5e5e5e"/><path d="M980 1498.97v1.03" stroke="#5e5e5e" stroke-width="2" fill="none"/><path d="M940.13 964.3v2H785.4v-2zm-423.76.75v-2h114.37v2z" fill="#5e5e5e"/><path d="M516.4 965.05h-1.03v-2h1.02zM955.4 965.3l-14.27 4.65v-9.27z" fill="#5e5e5e"/><path d="M958.63 965.3l-18.5 6.02V959.3zm-16.5 3.27l10.03-3.26-10.03-3.25z" fill="#5e5e5e"/><use xlink:href="#d" transform="matrix(1,0,0,1,630.7371035855681,953.3812180144267) translate(0.0049999999999954525 14.222222222222223)"/><use xlink:href="#k" transform="matrix(1,0,0,1,630.7371035855681,953.3812180144267) translate(70.0296913580247 14.222222222222223)"/><path d="M570 306c0-3.3 2.7-6 6-6h28c3.3 0 6 2.7 6 6v148c0 3.3-2.7 6-6 6h-28c-3.3 0-6-2.7-6-6zM179.62 306c0-3.3 2.7-6 6-6h28c3.32 0 6 2.7 6 6v148c0 3.3-2.68 6-6 6h-28c-3.3 0-6-2.7-6-6zM960 966c0-3.3 2.7-6 6-6h28c3.3 0 6 2.7 6 6v468c0 3.3-2.7 6-6 6h-28c-3.3 0-6-2.7-6-6zM1310.54 731.47c0-3.32 2.7-6 6-6h187.24c3.32 0 6 2.68 6 6v108c0 3.3-2.68 6-6 6h-187.24c-3.3 0-6-2.7-6-6z" stroke="#5e5e5e" stroke-width="3" fill="#fff"/><use xlink:href="#l" transform="matrix(1,0,0,1,1310.5392957955723,725.4666666666667) translate(26.90499999999998 63.15)"/><use xlink:href="#m" transform="matrix(1,0,0,1,1310.5392957955723,725.4666666666667) translate(86.40499999999999 63.15)"/><path d="M1410.16 847.97V852m0 8.1v8.1m0 8.08v8.1m0 8.08v8.1m0 8.08v8.1m0 8.08v8.1m0 8.08v8.1m0 8.08v8.1m0 8.08v8.1m0 8.08v8.1m0 8.1v8.08m0 8.1v8.08m0 8.1v8.08m0 8.1v8.08m0 8.1v8.08m0 8.1v8.08m0 8.1v8.08m0 8.1v8.08m0 8.1v8.08m0 8.1v8.08m0 8.1v8.08m0 8.1v8.08m0 8.1v8.08m0 8.1v8.08m0 8.1v8.08m0 8.1v8.08m0 8.1v8.08m0 8.1v8.08m0 8.1v8.08m0 8.1v8.08m0 8.1v8.08m0 8.1v8.08m0 8.1v8.08m0 8.1v8.08m0 8.1v8.08m0 8.1v8.08m0 8.1v8.08m0 8.1v8.08m0 8.1v8.08m0 8.1v4.04" stroke="#5e5e5e" stroke-width="2" fill="none"/><path d="M1411.16 848h-2v-1.03h2z" fill="#5e5e5e"/><path d="M1410.16 1478.97v1.03" stroke="#5e5e5e" stroke-width="2" fill="none"/><path d="M1149.33 1029.03H1002.5v-2h146.83zm220.83 0h-86.85v-2h86.86z" fill="#5e5e5e"/><path d="M1002.53 1029.03h-1.03v-2h1.03zM1385.43 1028.03l-14.27 4.64v-9.27z" fill="#5e5e5e"/><path d="M1388.66 1028.03l-18.5 6.02v-12.03zm-16.5 3.26l10.03-3.27-10.04-3.26z" fill="#5e5e5e"/><use xlink:href="#n" transform="matrix(1,0,0,1,1149.3330202862637,1017.3666970861806) translate(0.0049999999999954525 14.222222222222223)"/><use xlink:href="#k" transform="matrix(1,0,0,1,1149.3330202862637,1017.3666970861806) translate(49.33833333333334 14.222222222222223)"/><path d="M179.62 1066c0-3.3 2.7-6 6-6H428.2c3.3 0 6 2.7 6 6v8c0 3.3-1.9 7.9-4.25 10.24l-1.52 1.52c-2.34 2.34-6.93 4.24-10.24 4.24H185.6c-3.3 0-6-2.7-6-6z" fill="#fff"/><path d="M434.2 1060v20l-10 10H179.6" stroke="#5e5e5e" stroke-width="3" fill="none"/><path d="M179.62 1066c0-3.3 2.7-6 6-6H1634c3.3 0 6 2.7 6 6v448c0 3.3-2.7 6-6 6H185.62c-3.3 0-6-2.7-6-6zM179.62 1290h20m15 0h20m15 0h20m15 0h20m15 0h20m15 0h20m15 0h20m15 0h20m15 0h20m15 0h20m15 0h20m15 0h20m15 0h20m15 0h20m15 0h20m15 0h20m15 0h20m15 0h20m15 0h20m15 0h20m15 0h20m15 0h20m15 0h20m15 0h20m15 0h20m15 0h20m15 0h20m15 0h20m15 0h20m15 0h20m15 0h20m15 0h20m15 0h20m15 0h20m15 0h20m15 0h20m15 0h20m15 0h20m15 0h20m15 0h20m15 0h20m15 0h20" stroke="#5e5e5e" stroke-width="3" fill="none"/><use xlink:href="#o" transform="matrix(1,0,0,1,187.62148369347562,1060) translate(66.12345679012346 19.444444444444443)"/><use xlink:href="#p" transform="matrix(1,0,0,1,191.62148369347562,1098) translate(7.993827160493822 19.444444444444443)"/><use xlink:href="#q" transform="matrix(1,0,0,1,191.62148369347562,1098) translate(119.96913580246914 19.444444444444443)"/><use xlink:href="#r" transform="matrix(1,0,0,1,191.62148369347562,1098) translate(152.0679012345679 19.444444444444443)"/><use xlink:href="#s" transform="matrix(1,0,0,1,191.62148369347562,1298) translate(17.808641975308646 19.444444444444443)"/><path d="M1387.66 1153.13h-4v-2h4zm-12 0h-7.98v-2h8zm-15.97 0h-8v-2h8zm-16 0h-8v-2h8zm-15.98 0h-8v-2h8zm-16 0h-7.98v-2h8zm-15.97 0h-8v-2h8zm-179.3 0h-4.53v-2h4.52zm-12.53 0h-8v-2h8zm-15.98 0h-8v-2h8zm-16 0h-7.98v-2h8zm-15.97 0h-8v-2h8zm-16 0H1032v-2h7.98zm-15.97 0h-4v-2h4zm255.76 0h-6.04v-2h6.04z" fill="#5e5e5e"/><path d="M1388.66 1153.13h-1.02v-2h1.02zM1019 1156.76l-14.26-4.63 14.26-4.64z" fill="#5e5e5e"/><path d="M1020 1158.14l-18.5-6 18.5-6.03zm-12.03-6l10.03 3.25v-6.53z" fill="#5e5e5e"/><use xlink:href="#t" transform="matrix(1,0,0,1,1116.438993343861,1141.459747407158) translate(0.0049999999999954525 14.222222222222223)"/><use xlink:href="#u" transform="matrix(1,0,0,1,1116.438993343861,1141.459747407158) translate(89.58524691358028 14.222222222222223)"/><path d="M957.5 1213.23h-4.07v-2h4.07zm-12.22 0h-8.15v-2h8.15zm-16.3 0h-8.14v-2H929zm-16.3 0h-8.13v-2h8.14zm-16.28 0h-8.15v-2h8.15zm-16.3 0h-8.14v-2h8.15zm-16.3 0h-8.13v-2h8.14zm-16.28 0h-8.15v-2h8.15zm-16.3 0h-8.14v-2h8.15zm-179.22 0h-8.15v-2H652zm-16.3 0h-8.14v-2h8.14zm-16.3 0h-8.14v-2h8.15zm-16.28 0h-8.15v-2h8.15zm-16.3 0h-8.14v-2h8.14zm-16.3 0h-8.14v-2h8.15zm-16.28 0h-8.15v-2h8.14zm-16.3 0h-4.07v-2h4.07zm277 0h-1.14v-2h1.13z" fill="#5e5e5e"/><path d="M958.5 1213.23h-1.03v-2h1.03zM532.87 1216.87l-14.27-4.64 14.27-4.63z" fill="#5e5e5e"/><path d="M533.87 1218.25l-18.5-6.02 18.5-6zm-12.03-6.02l10.03 3.26v-6.52z" fill="#5e5e5e"/><use xlink:href="#t" transform="matrix(1,0,0,1,660.0699338254508,1201.5673186563813) translate(0.0049999999999954525 14.222222222222223)"/><use xlink:href="#v" transform="matrix(1,0,0,1,660.0699338254508,1201.5673186563813) translate(89.58524691358028 14.222222222222223)"/><path d="M473.87 946c0-3.3 2.68-6 6-6h28c3.3 0 6 2.7 6 6v508c0 3.3-2.7 6-6 6h-28c-3.32 0-6-2.7-6-6zM1390.16 1026c0-3.3 2.7-6 6-6h28c3.32 0 6 2.7 6 6v348c0 3.3-2.68 6-6 6h-28c-3.3 0-6-2.7-6-6z" stroke="#5e5e5e" stroke-width="3" fill="#fff"/><path d="M1388.5 1378.34h-4v-2h4zm-12 0h-8.02v-2h8.02zm-16.03 0h-8v-2h8zm-16.02 0h-8v-2h8zm-16.02 0h-8v-2h8zm-16.02 0h-8v-2h8zm-16.02 0h-8v-2h8zm-192.26 0h-8v-2h8zm-16.02 0h-8v-2h8zm-16.03 0h-8v-2h8zm-16.02 0h-8v-2h8zm-16.02 0h-8v-2h8zm-16.02 0h-4v-2h4z" fill="#5e5e5e"/><path d="M1389.64 1377.8l.54.54h-1.7v-2h.76zM1019 1381.98l-14.26-4.64 14.26-4.63z" fill="#5e5e5e"/><path d="M1020 1383.36l-18.5-6.02 18.5-6zm-12.03-6.02l10.03 3.26v-6.5z" fill="#5e5e5e"/><use xlink:href="#t" transform="matrix(1,0,0,1,1110.271732543259,1366.6773487672951) translate(0.0049999999999954525 14.222222222222223)"/><use xlink:href="#w" transform="matrix(1,0,0,1,1110.271732543259,1366.6773487672951) translate(89.58524691358028 14.222222222222223)"/><path d="M962.03 1441.75h-3.97v-2h3.97zm-11.9 0h-7.92v-2h7.94zm-15.85 0h-7.93v-2h7.93zm-15.86 0h-7.93v-2h7.92zm-15.86 0h-7.93v-2h7.93zm-15.86 0h-7.92v-2h7.92zm-15.85 0h-7.93v-2h7.93zm-15.86 0h-7.94v-2H855zm-211.97 0h-2.12v-2h2.13zm-10.05 0h-7.93v-2h7.93zm-15.86 0h-7.92v-2h7.92zm-15.85 0h-7.93v-2h7.93zm-15.86 0h-7.92v-2h7.93zm-15.85 0h-7.93v-2h7.93zm-15.86 0h-7.94v-2h7.93zm-15.86 0h-3.97v-2h3.97zm301.3 0h-3.77v-2h3.76z" fill="#5e5e5e"/><path fill="#5e5e5e"/><path d="M532.87 1445.4l-14.26-4.65 14.27-4.64z" fill="#5e5e5e"/><path d="M533.87 1446.76l-18.5-6 18.5-6.02zm-12.03-6l10.03 3.25v-6.5z" fill="#5e5e5e"/><use xlink:href="#x" transform="matrix(1,0,0,1,643.0260127568887,1430.0831509945797) translate(0.0049999999999954525 14.222222222222223)"/><use xlink:href="#y" transform="matrix(1,0,0,1,643.0260127568887,1430.0831509945797) translate(71.01734567901235 14.222222222222223)"/><use xlink:href="#z" transform="matrix(1,0,0,1,643.0260127568887,1430.0831509945797) translate(104.49882716049383 14.222222222222223)"/><path d="M542.6 2042.3c0 8.6-6.94 15.55-15.52 15.55-8.58 0-15.54-6.96-15.54-15.54 0-8.56 6.96-15.52 15.54-15.52 8.58 0 15.53 6.96 15.53 15.53z" stroke="#5e5e5e" stroke-width="3" fill="#fff"/><path d="M527.08 2057.85v37.5c0 3.3 1.94 7.84 4.35 10.12l47.98 45.58m-52.32-49.7l-52.34 49.7m0-77.67H579.4" stroke="#5e5e5e" stroke-width="3" fill="none"/><path d="M474.74 2032.78c0-3.3 2.7-6 6-6h92.67c3.33 0 6 2.7 6 6v134.27c0 3.3-2.67 6-6 6h-92.66c-3.3 0-6-2.7-6-6z" fill="none"/><use xlink:href="#h" transform="matrix(1,0,0,1,394.74070933664257,2151.048081068528) translate(98.02469135802468 17.77777777777778)"/><path d="M942.33 2032.78c0-3.3 2.68-6 6-6h169.45c3.32 0 6 2.7 6 6v95.26c0 3.32-2.68 6-6 6H948.33c-3.32 0-6-2.68-6-6z" stroke="#5e5e5e" stroke-width="3" fill="#fff"/><use xlink:href="#b" transform="matrix(1,0,0,1,942.3261979504693,2026.7816012674343) translate(40.12999999999999 58.275)"/><use xlink:href="#c" transform="matrix(1,0,0,1,942.3261979504693,2026.7816012674343) translate(105.98 58.275)"/><path d="M525.58 2092.53v4.02m-.02 8.04v8.02m0 8.04l-.02 8.04m0 8.03l-.02 8.04m0 8.04v8.04m-.02 8.04v8.04m-.02 8.03v8.04m0 8.03l-.02 8.03m0 8.04l-.02 8.04m0 8.03v8.04m-.02 8.05v8.03m0 8.04l-.02 8.04m0 8.03l-.02 8.03m0 8.04v8.03m-.02 8.04v8.04m-.02 8.04v8.03m0 8.04l-.02 8.03m0 8.03l-.02 8.04m0 8.04v8.03m-.02 8.04v8.05m-.02 8.03v8.04m0 8.04l-.02 8.03m0 8.03l-.02 8.04m0 8.03v8.04m-.02 8.04v8.03m-.02 8.05v8.04m0 8.02l-.02 8.04m0 8.04l-.02 8.03m0 8.04v4.02M525.58 2092.56v-4.03M525.13 2542.56v1.03M1033.05 2136.54v4.06m0 8.13v8.12m0 8.12v8.12m0 8.1v8.13m0 8.12v8.12m0 8.12v8.1m0 8.13v8.13m0 8.12v8.12m0 8.12v8.12m0 8.12v8.12m0 8.12v8.12m0 8.12v8.12m0 8.13v8.1m0 8.13v8.12m0 8.12v8.12m0 8.1v8.13m0 8.12v8.12m0 8.12v8.12m0 8.12v8.12m0 8.12v8.12m0 8.12v8.12m0 8.12v8.12m0 8.12v8.12m0 8.13v8.12m0 8.12v8.1m0 8.13v4.06" stroke="#5e5e5e" stroke-width="2" fill="none"/><path d="M1034.05 2136.57h-2v-1.03h2z" fill="#5e5e5e"/><path d="M1033.05 2542.56v1.03" stroke="#5e5e5e" stroke-width="2" fill="none"/><path d="M942.33 2032.78c0-3.3 2.68-6 6-6h169.45c3.32 0 6 2.7 6 6v95.26c0 3.32-2.68 6-6 6H948.33c-3.32 0-6-2.68-6-6z" stroke="#5e5e5e" stroke-width="3" fill="#fff"/><use xlink:href="#i" transform="matrix(1,0,0,1,942.3261979504693,2026.7816012674343) translate(13.654999999999996 58.275)"/><use xlink:href="#A" transform="matrix(1,0,0,1,942.3261979504693,2026.7816012674343) translate(63.505 58.275)"/><path d="M525.13 2090.05v4.03m0 8.08v8.07m0 8.08v8.08m0 8.07v8.08m0 8.07v8.07m0 8.08v8.07m0 8.08v8.07m0 8.07v8.08m0 8.07v8.06m0 8.08v8.07m0 8.1v8.06m0 8.07v8.08m0 8.08v8.07m0 8.08v8.07m0 8.08v8.07m0 8.07v8.08m0 8.07v8.07m0 8.08v8.07m0 8.07v8.07m0 8.07v8.1m0 8.06v8.07m0 8.08v8.08m0 8.08v8.07m0 8.07v8.08m0 8.07v8.07m0 8.08v8.07m0 8.08v8.07m0 8.07v8.07m0 8.07v8.08m0 8.07v8.06m0 8.08v8.07m0 8.08v8.08m0 8.07v8.08m0 8.08v8.07m0 8.08v8.07m0 8.07v8.08m0 8.07v8.08m0 8.07v8.07m0 8.08v8.07m0 8.06v8.08m0 8.07v8.1m0 8.06v8.07m0 8.08v8.08m0 8.07v8.08m0 8.07v4.04M525.13 2090.07v-1.02M525.13 2800.5v1.04M1033.05 2136.54v4.03m0 8.06v8.05m0 8.06v8.06m0 8.05v8.06m0 8.06v8.06m0 8.06v8.05m0 8.06v8.05m0 8.05v8.06m0 8.05v8.07m0 8.06v8.05m0 8.06v8.06m0 8.05v8.06m0 8.06v8.06m0 8.06v8.05m0 8.06v8.04m0 8.06v8.06m0 8.05v8.07m0 8.06v8.05m0 8.06v8.05m0 8.05v8.06m0 8.06v8.06m0 8.05v8.06m0 8.06v8.04m0 8.06v8.06m0 8.05v8.07m0 8.05v8.06m0 8.06v8.05m0 8.05v8.05m0 8.06v8.06m0 8.05v8.06m0 8.06v8.04m0 8.06v8.05m0 8.06v8.07m0 8.05v8.06m0 8.05v8.06m0 8.05v8.05m0 8.06v8.06m0 8.05v8.06m0 8.05v8.06m0 8.06v8.05m0 8.06v4.04" stroke="#5e5e5e" stroke-width="2" fill="none"/><path d="M1034.05 2136.57h-2v-1.03h2z" fill="#5e5e5e"/><path d="M1033.05 2781v1.04" stroke="#5e5e5e" stroke-width="2" fill="none"/><path d="M1377.1 2032.78c0-3.3 2.68-6 6-6h195.37c3.3 0 6 2.7 6 6v105c0 3.33-2.7 6-6 6H1383.1c-3.32 0-6-2.67-6-6z" stroke="#5e5e5e" stroke-width="3" fill="#fff"/><use xlink:href="#l" transform="matrix(1,0,0,1,1377.0887172065059,2026.7816012674343) translate(30.90499999999998 62.3375)"/><use xlink:href="#m" transform="matrix(1,0,0,1,1377.0887172065059,2026.7816012674343) translate(90.40499999999999 62.3375)"/><path d="M1480.78 2146.3v4.04m0 8.1v8.1m0 8.1v8.08m0 8.1v8.1m0 8.1v8.08m0 8.1v8.1m0 8.1v8.1m0 8.08v8.1m0 8.1v8.1m0 8.08v8.1m0 8.1v8.1m0 8.08v8.1m0 8.1v8.1m0 8.08v8.1m0 8.1v8.1m0 8.08v8.1m0 8.1v8.1m0 8.1v8.08m0 8.1v8.1m0 8.1v8.09m0 8.1v8.1m0 8.1v8.08m0 8.1v8.1m0 8.1v8.08m0 8.1v8.1m0 8.1v8.1m0 8.08v8.1m0 8.1v8.1m0 8.08v8.1m0 8.1v8.1m0 8.08v8.1m0 8.1v8.1m0 8.08v8.1m0 8.1v8.1m0 8.08v8.1m0 8.1v8.1m0 8.08v8.1m0 8.1v8.1m0 8.1v4.03" stroke="#5e5e5e" stroke-width="2" fill="none"/><path d="M1481.78 2146.32h-2v-1.03h2z" fill="#5e5e5e"/><path d="M1480.78 2761.5v1.03" stroke="#5e5e5e" stroke-width="2" fill="none"/><path d="M200 2359c0-3.33 2.7-6 6-6h242.57c3.3 0 6 2.67 6 6v8c0 3.3-1.9 7.9-4.25 10.23l-1.5 1.52c-2.35 2.34-6.94 4.24-10.25 4.24H206c-3.3 0-6-2.7-6-6z" fill="#fff"/><path d="M454.57 2353v20l-10 10H200" stroke="#5e5e5e" stroke-width="3" fill="none"/><path d="M200 2359c0-3.33 2.7-6 6-6h1508c3.3 0 6 2.67 6 6v436.54c0 3.3-2.7 6-6 6H206c-3.3 0-6-2.7-6-6zM200 2577.26h20m15 0h20m15 0h20m15 0h20m15 0h20m15 0h20m15 0h20m15 0h20m15 0h20m15 0h20m15 0h20m15 0h20m15 0h20m15 0h20m15 0h20m15 0h20m15 0h20m15 0h20m15 0h20m15 0h20m15 0h20m15 0h20m15 0h20m15 0h20m15 0h20m15 0h20m15 0h20m15 0h20m15 0h20m15 0h20m15 0h20m15 0h20m15 0h20m15 0h20m15 0h20m15 0h20m15 0h20m15 0h20m15 0h20m15 0h20m15 0h20m15 0h20m15 0h20m15 0h15" stroke="#5e5e5e" stroke-width="3" fill="none"/><use xlink:href="#o" transform="matrix(1,0,0,1,208,2352.9883548860525) translate(66.12345679012346 19.444444444444443)"/><use xlink:href="#p" transform="matrix(1,0,0,1,212,2390.9883548860525) translate(7.993827160493822 19.444444444444443)"/><use xlink:href="#q" transform="matrix(1,0,0,1,212,2390.9883548860525) translate(119.96913580246914 19.444444444444443)"/><use xlink:href="#r" transform="matrix(1,0,0,1,212,2390.9883548860525) translate(152.0679012345679 19.444444444444443)"/><use xlink:href="#s" transform="matrix(1,0,0,1,212,2585.2636239143967) translate(17.808641975308646 19.444444444444443)"/><path d="M658.9 2264.65H526.14v-2H658.9zm334.73 0H813.58v-2h180.05z" fill="#5e5e5e"/><path d="M526.16 2264.65h-1.03v-2h1.03zM1008.9 2263.65l-14.27 4.64V2259z" fill="#5e5e5e"/><path d="M1012.14 2263.65l-18.5 6v-12zm-16.5 3.26l10.02-3.25-10.03-3.26z" fill="#5e5e5e"/><use xlink:href="#d" transform="matrix(1,0,0,1,658.9140936227913,2252.983917906811) translate(0.0049999999999954525 14.222222222222223)"/><use xlink:href="#k" transform="matrix(1,0,0,1,658.9140936227913,2252.983917906811) translate(70.0296913580247 14.222222222222223)"/><path d="M1204.32 2321h-170.27v-2h170.27zm239.63 0H1338.3v-2h105.65z" fill="#5e5e5e"/><path d="M1034.08 2321h-1.03v-2h1.03zM1459.2 2320l-14.25 4.64v-9.28z" fill="#5e5e5e"/><path d="M1462.45 2320l-18.5 6v-12zm-16.5 3.26l10.03-3.26-10.03-3.26z" fill="#5e5e5e"/><use xlink:href="#n" transform="matrix(1,0,0,1,1204.3203170288314,2309.3333333333335) translate(0.0049999999999954525 14.222222222222223)"/><use xlink:href="#k" transform="matrix(1,0,0,1,1204.3203170288314,2309.3333333333335) translate(49.33833333333334 14.222222222222223)"/><path d="M1479.78 2421h-4.07v-2h4.08zm-12.2 0h-8.14v-2h8.14zm-16.27 0h-8.13v-2h8.14zm-16.26 0h-8.14v-2h8.14zm-16.27 0h-8.13v-2h8.13zm-16.27 0h-8.13v-2h8.13zm-16.27 0h-8.13v-2h8.13zm-16.27 0h-8.13v-2h8.13zm-180.94 0h-6.15v-2h6.15zm-14.28 0h-8.14v-2h8.14zm-16.27 0h-8.14v-2h8.14zm-16.27 0h-8.14v-2h8.14zm-16.27 0h-8.13v-2h8.13zm-16.27 0h-8.13v-2h8.13zm-16.27 0h-8.14v-2h8.13zm-16.28 0h-4.06v-2h4.06zm276.57 0h-7.4v-2h7.4z" fill="#5e5e5e"/><path d="M1480.78 2421h-1.03v-2h1.03zM1072.06 2424.64l-14.27-4.64 14.26-4.64z" fill="#5e5e5e"/><path d="M1073.06 2426l-18.5-6 18.5-6zm-12.03-6l10.03 3.26v-6.52z" fill="#5e5e5e"/><g><use xlink:href="#t" transform="matrix(1,0,0,1,1189.0247075260368,2409.3333333333335) translate(0.0049999999999954525 14.222222222222223)"/><use xlink:href="#u" transform="matrix(1,0,0,1,1189.0247075260368,2409.3333333333335) translate(89.58524691358028 14.222222222222223)"/></g><path d="M1032.05 2481h-4v-2h4zm-12.02 0H1012v-2h8.03zm-16.03 0h-8.02v-2h8.02zm-16.04 0h-8v-2h8zm-16.03 0h-8.02v-2h8.03zm-16.04 0h-8.02v-2h8zm-16.04 0h-8.02v-2h8.02zm-16.03 0h-8.02v-2h8.03zm-16.04 0h-8.02v-2h8zm-16.04 0h-8.02v-2h8.02zm-16.03 0h-8.02v-2h8.03zm-161.78 0h-6.58v-2h6.58zm-14.6 0h-8v-2h8zm-16.03 0h-8v-2h8zm-16.03 0h-8.03v-2h8.02zm-16.05 0h-8v-2h8zm-16.03 0h-8.02v-2h8.02zm-16.03 0h-8.03v-2h8.02zm-16.05 0h-8v-2h8zm-16.03 0h-8.02v-2h8.02zm-16.03 0h-4.02v-2h4z" fill="#5e5e5e"/><path d="M1033.05 2481h-1.02v-2h1.02zM566.08 2484.64L551.8 2480l14.28-4.64z" fill="#5e5e5e"/><path d="M567.08 2486l-18.5-6 18.5-6zm-12.03-6l10.03 3.26v-6.52z" fill="#5e5e5e"/><g><use xlink:href="#t" transform="matrix(1,0,0,1,713.9513231465928,2469.3333333333335) translate(0.0049999999999954525 14.222222222222223)"/><use xlink:href="#v" transform="matrix(1,0,0,1,713.9513231465928,2469.3333333333335) translate(89.58524691358028 14.222222222222223)"/></g><path d="M1479.78 2641h-4.07v-2h4.08zm-12.2 0h-8.14v-2h8.14zm-16.27 0h-8.13v-2h8.14zm-16.26 0h-8.14v-2h8.14zm-16.27 0h-8.13v-2h8.13zm-16.27 0h-8.13v-2h8.13zm-16.27 0h-8.13v-2h8.13zm-16.27 0h-8.13v-2h8.13zm-195.22 0h-8.14v-2h8.14zm-16.27 0h-8.14v-2h8.14zm-16.27 0h-8.14v-2h8.14zm-16.27 0h-8.13v-2h8.13zm-16.27 0h-8.13v-2h8.13zm-16.27 0h-8.14v-2h8.13zm-16.28 0h-4.06v-2h4.06zm276.57 0h-.8v-2h.8z" fill="#5e5e5e"/><path d="M1480.78 2641h-1.03v-2h1.03zM1072.06 2644.63l-14.27-4.63 14.26-4.64z" fill="#5e5e5e"/><path d="M1073.06 2646l-18.5-6 18.5-6zm-12.03-6l10.03 3.26v-6.52z" fill="#5e5e5e"/><g><use xlink:href="#t" transform="matrix(1,0,0,1,1182.4321149334444,2629.3323333333337) translate(0.0049999999999954525 14.222222222222223)"/><use xlink:href="#w" transform="matrix(1,0,0,1,1182.4321149334444,2629.3323333333337) translate(89.58524691358028 14.222222222222223)"/></g><path d="M1032.05 2701h-4.03v-2h4.03zm-12.1 0h-8.07v-2h8.07zm-16.15 0h-8.07v-2h8.07zm-16.14 0h-8.07v-2h8.06zm-16.14 0h-8.07v-2h8.07zm-16.14 0h-8.08v-2h8.08zm-16.15 0h-8.07v-2h8.07zm-16.14 0H915v-2h8.07zm-16.15 0h-8.07v-2h8.07zm-213.9 0h-4.03v-2h4.04zm-12.1 0h-8.08v-2h8.08zm-16.15 0h-8.07v-2h8.07zm-16.14 0h-8.07v-2h8.06zm-16.14 0h-8.08v-2h8.08zm-16.15 0h-8.07v-2h8.07zm-16.14 0h-8.07v-2h8.07zm-16.14 0H576v-2h8.07zm-16.16 0h-4.03v-2h4.04zm322.86 0h-5.4v-2h5.4z" fill="#5e5e5e"/><path d="M1033.05 2701h-1.02v-2h1.02zM562.9 2704.64l-14.26-4.64 14.27-4.64z" fill="#5e5e5e"/><path d="M563.9 2706l-18.5-6 18.5-6zm-12.02-6l10.03 3.26v-6.52z" fill="#5e5e5e"/><g><use xlink:href="#x" transform="matrix(1,0,0,1,693.0579108430642,2689.3333333333335) translate(0.0049999999999954525 14.222222222222223)"/><use xlink:href="#y" transform="matrix(1,0,0,1,693.0579108430642,2689.3333333333335) translate(71.01734567901235 14.222222222222223)"/><use xlink:href="#z" transform="matrix(1,0,0,1,693.0579108430642,2689.3333333333335) translate(104.49882716049383 14.222222222222223)"/></g><path d="M507.08 2266c0-3.3 2.68-6 6-6h28c3.3 0 6 2.7 6 6v428c0 3.3-2.7 6-6 6h-28c-3.32 0-6-2.7-6-6zM1013.05 2266c0-3.3 2.7-6 6-6h28c3.32 0 6 2.7 6 6v428c0 3.3-2.68 6-6 6h-28c-3.3 0-6-2.7-6-6zM1460.78 2326c0-3.3 2.68-6 6-6h28c3.3 0 6 2.7 6 6v308c0 3.3-2.7 6-6 6h-28c-3.32 0-6-2.7-6-6z" stroke="#5e5e5e" stroke-width="3" fill="#fff"/><defs><path fill="#333" d="M232-93c-1 65-40 97-104 97C67 4 28-28 28-90v-158h33c8 89-33 224 67 224 102 0 64-133 71-224h33v155" id="B"/><path fill="#333" d="M135-143c-3-34-86-38-87 0 15 53 115 12 119 90S17 21 10-45l28-5c4 36 97 45 98 0-10-56-113-15-118-90-4-57 82-63 122-42 12 7 21 19 24 35" id="C"/><path fill="#333" d="M84 4C-5 8 30-112 23-190h32v120c0 31 7 50 39 49 72-2 45-101 50-169h31l1 190h-30c-1-10 1-25-2-33-11 22-28 36-60 37" id="D"/><path fill="#333" d="M141-36C126-15 110 5 73 4 37 3 15-17 15-53c-1-64 63-63 125-63 3-35-9-54-41-54-24 1-41 7-42 31l-33-3c5-37 33-52 76-52 45 0 72 20 72 64v82c-1 20 7 32 28 27v20c-31 9-61-2-59-35zM48-53c0 20 12 33 32 33 41-3 63-29 60-74-43 2-92-5-92 41" id="E"/><path fill="#333" d="M114-163C36-179 61-72 57 0H25l-1-190h30c1 12-1 29 2 39 6-27 23-49 58-41v29" id="F"/><path fill="#333" d="M24-231v-30h32v30H24zM24 0v-190h32V0H24" id="G"/><path fill="#333" d="M100-194c62-1 85 37 85 99 1 63-27 99-86 99S16-35 15-95c0-66 28-99 85-99zM99-20c44 1 53-31 53-75 0-43-8-75-51-75s-53 32-53 75 10 74 51 75" id="H"/><g id="a"><use transform="matrix(0.06172839506172839,0,0,0.06172839506172839,0,0)" xlink:href="#B"/><use transform="matrix(0.06172839506172839,0,0,0.06172839506172839,15.987654320987653,0)" xlink:href="#C"/><use transform="matrix(0.06172839506172839,0,0,0.06172839506172839,27.098765432098766,0)" xlink:href="#D"/><use transform="matrix(0.06172839506172839,0,0,0.06172839506172839,39.44444444444444,0)" xlink:href="#E"/><use transform="matrix(0.06172839506172839,0,0,0.06172839506172839,51.79012345679012,0)" xlink:href="#F"/><use transform="matrix(0.06172839506172839,0,0,0.06172839506172839,59.1358024691358,0)" xlink:href="#G"/><use transform="matrix(0.06172839506172839,0,0,0.06172839506172839,64.01234567901234,0)" xlink:href="#H"/></g><path d="M240 0l2-218c-23 76-54 145-80 218h-23L58-218 59 0H30v-248h44l77 211c21-75 51-140 76-211h43V0h-30" id="I"/><path d="M100-194c62-1 85 37 85 99 1 63-27 99-86 99S16-35 15-95c0-66 28-99 85-99zM99-20c44 1 53-31 53-75 0-43-8-75-51-75s-53 32-53 75 10 74 51 75" id="J"/><path d="M135-143c-3-34-86-38-87 0 15 53 115 12 119 90S17 21 10-45l28-5c4 36 97 45 98 0-10-56-113-15-118-90-4-57 82-63 122-42 12 7 21 19 24 35" id="K"/><path d="M59-47c-2 24 18 29 38 22v24C64 9 27 4 27-40v-127H5v-23h24l9-43h21v43h35v23H59v120" id="L"/><path d="M114-163C36-179 61-72 57 0H25l-1-190h30c1 12-1 29 2 39 6-27 23-49 58-41v29" id="M"/><path d="M141-36C126-15 110 5 73 4 37 3 15-17 15-53c-1-64 63-63 125-63 3-35-9-54-41-54-24 1-41 7-42 31l-33-3c5-37 33-52 76-52 45 0 72 20 72 64v82c-1 20 7 32 28 27v20c-31 9-61-2-59-35zM48-53c0 20 12 33 32 33 41-3 63-29 60-74-43 2-92-5-92 41" id="N"/><g id="b"><use transform="matrix(0.05,0,0,0.05,0,0)" xlink:href="#I"/><use transform="matrix(0.05,0,0,0.05,14.950000000000001,0)" xlink:href="#J"/><use transform="matrix(0.05,0,0,0.05,24.950000000000003,0)" xlink:href="#K"/><use transform="matrix(0.05,0,0,0.05,33.95,0)" xlink:href="#L"/><use transform="matrix(0.05,0,0,0.05,38.95,0)" xlink:href="#M"/><use transform="matrix(0.05,0,0,0.05,44.900000000000006,0)" xlink:href="#N"/><use transform="matrix(0.05,0,0,0.05,54.900000000000006,0)" xlink:href="#M"/><path d="M-.9 1.25h67.65v1.32H-.9z"/></g><path d="M185-189c-5-48-123-54-124 2 14 75 158 14 163 119 3 78-121 87-175 55-17-10-28-26-33-46l33-7c5 56 141 63 141-1 0-78-155-14-162-118-5-82 145-84 179-34 5 7 8 16 11 25" id="O"/><path d="M24-231v-30h32v30H24zM24 0v-190h32V0H24" id="P"/><g id="c"><use transform="matrix(0.05,0,0,0.05,0,0)" xlink:href="#O"/><use transform="matrix(0.05,0,0,0.05,12,0)" xlink:href="#P"/><use transform="matrix(0.05,0,0,0.05,15.949999999999998,0)" xlink:href="#L"/><use transform="matrix(0.05,0,0,0.05,20.95,0)" xlink:href="#P"/><use transform="matrix(0.05,0,0,0.05,24.9,0)" xlink:href="#J"/><path d="M-.9 1.25h36.7v1.32H-.9z"/></g><path fill="#333" d="M33 0v-248h34V0H33" id="Q"/><path fill="#333" d="M117-194c89-4 53 116 60 194h-32v-121c0-31-8-49-39-48C34-167 62-67 57 0H25l-1-190h30c1 10-1 24 2 32 11-22 29-35 61-36" id="R"/><path fill="#333" d="M177-190C167-65 218 103 67 71c-23-6-38-20-44-43l32-5c15 47 100 32 89-28v-30C133-14 115 1 83 1 29 1 15-40 15-95c0-56 16-97 71-98 29-1 48 16 59 35 1-10 0-23 2-32h30zM94-22c36 0 50-32 50-73 0-42-14-75-50-75-39 0-46 34-46 75s6 73 46 73" id="S"/><path fill="#333" d="M100-194c63 0 86 42 84 106H49c0 40 14 67 53 68 26 1 43-12 49-29l28 8c-11 28-37 45-77 45C44 4 14-33 15-96c1-61 26-98 85-98zm52 81c6-60-76-77-97-28-3 7-6 17-6 28h103" id="T"/><g id="d"><use transform="matrix(0.04938271604938272,0,0,0.04938271604938272,0,0)" xlink:href="#Q"/><use transform="matrix(0.04938271604938272,0,0,0.04938271604938272,4.938271604938272,0)" xlink:href="#R"/><use transform="matrix(0.04938271604938272,0,0,0.04938271604938272,14.814814814814817,0)" xlink:href="#S"/><use transform="matrix(0.04938271604938272,0,0,0.04938271604938272,24.69135802469136,0)" xlink:href="#F"/><use transform="matrix(0.04938271604938272,0,0,0.04938271604938272,30.567901234567906,0)" xlink:href="#T"/><use transform="matrix(0.04938271604938272,0,0,0.04938271604938272,40.44444444444445,0)" xlink:href="#C"/><use transform="matrix(0.04938271604938272,0,0,0.04938271604938272,49.33333333333334,0)" xlink:href="#E"/><use transform="matrix(0.04938271604938272,0,0,0.04938271604938272,59.209876543209894,0)" xlink:href="#F"/></g><path fill="#333" d="M185-189c-5-48-123-54-124 2 14 75 158 14 163 119 3 78-121 87-175 55-17-10-28-26-33-46l33-7c5 56 141 63 141-1 0-78-155-14-162-118-5-82 145-84 179-34 5 7 8 16 11 25" id="U"/><path fill="#333" d="M59-47c-2 24 18 29 38 22v24C64 9 27 4 27-40v-127H5v-23h24l9-43h21v43h35v23H59v120" id="V"/><g id="e"><use transform="matrix(0.04938271604938272,0,0,0.04938271604938272,0,0)" xlink:href="#U"/><use transform="matrix(0.04938271604938272,0,0,0.04938271604938272,11.851851851851853,0)" xlink:href="#G"/><use transform="matrix(0.04938271604938272,0,0,0.04938271604938272,15.753086419753087,0)" xlink:href="#V"/><use transform="matrix(0.04938271604938272,0,0,0.04938271604938272,20.69135802469136,0)" xlink:href="#G"/><use transform="matrix(0.04938271604938272,0,0,0.04938271604938272,24.592592592592595,0)" xlink:href="#H"/></g><path fill="#333" d="M205 0l-28-72H64L36 0H1l101-248h38L239 0h-34zm-38-99l-47-123c-12 45-31 82-46 123h93" id="W"/><path fill="#333" d="M115-194c53 0 69 39 70 98 0 66-23 100-70 100C84 3 66-7 56-30L54 0H23l1-261h32v101c10-23 28-34 59-34zm-8 174c40 0 45-34 45-75 0-40-5-75-45-74-42 0-51 32-51 76 0 43 10 73 51 73" id="X"/><path fill="#333" d="M85-194c31 0 48 13 60 33l-1-100h32l1 261h-30c-2-10 0-23-3-31C134-8 116 4 85 4 32 4 16-35 15-94c0-66 23-100 70-100zm9 24c-40 0-46 34-46 75 0 40 6 74 45 74 42 0 51-32 51-76 0-42-9-74-50-73" id="Y"/><g id="f"><use transform="matrix(0.04938271604938272,0,0,0.04938271604938272,0,0)" xlink:href="#W"/><use transform="matrix(0.04938271604938272,0,0,0.04938271604938272,11.851851851851853,0)" xlink:href="#X"/><use transform="matrix(0.04938271604938272,0,0,0.04938271604938272,21.7283950617284,0)" xlink:href="#E"/><use transform="matrix(0.04938271604938272,0,0,0.04938271604938272,31.60493827160494,0)" xlink:href="#R"/><use transform="matrix(0.04938271604938272,0,0,0.04938271604938272,41.48148148148149,0)" xlink:href="#Y"/><use transform="matrix(0.04938271604938272,0,0,0.04938271604938272,51.35802469135803,0)" xlink:href="#H"/><use transform="matrix(0.04938271604938272,0,0,0.04938271604938272,61.23456790123457,0)" xlink:href="#R"/><use transform="matrix(0.04938271604938272,0,0,0.04938271604938272,71.11111111111111,0)" xlink:href="#E"/></g><path fill="#333" d="M210-169c-67 3-38 105-44 169h-31v-121c0-29-5-50-35-48C34-165 62-65 56 0H25l-1-190h30c1 10-1 24 2 32 10-44 99-50 107 0 11-21 27-35 58-36 85-2 47 119 55 194h-31v-121c0-29-5-49-35-48" id="Z"/><g id="g"><use transform="matrix(0.04938271604938272,0,0,0.04938271604938272,0,0)" xlink:href="#U"/><use transform="matrix(0.04938271604938272,0,0,0.04938271604938272,11.851851851851853,0)" xlink:href="#G"/><use transform="matrix(0.04938271604938272,0,0,0.04938271604938272,15.753086419753087,0)" xlink:href="#C"/><use transform="matrix(0.04938271604938272,0,0,0.04938271604938272,24.641975308641978,0)" xlink:href="#V"/><use transform="matrix(0.04938271604938272,0,0,0.04938271604938272,29.58024691358025,0)" xlink:href="#T"/><use transform="matrix(0.04938271604938272,0,0,0.04938271604938272,39.4567901234568,0)" xlink:href="#Z"/><use transform="matrix(0.04938271604938272,0,0,0.04938271604938272,54.22222222222223,0)" xlink:href="#E"/></g><path fill="#333" d="M212-179c-10-28-35-45-73-45-59 0-87 40-87 99 0 60 29 101 89 101 43 0 62-24 78-52l27 14C228-24 195 4 139 4 59 4 22-46 18-125c-6-104 99-153 187-111 19 9 31 26 39 46" id="aa"/><path fill="#333" d="M24 0v-261h32V0H24" id="ab"/><g id="h"><use transform="matrix(0.06172839506172839,0,0,0.06172839506172839,0,0)" xlink:href="#aa"/><use transform="matrix(0.06172839506172839,0,0,0.06172839506172839,15.987654320987653,0)" xlink:href="#ab"/><use transform="matrix(0.06172839506172839,0,0,0.06172839506172839,20.864197530864196,0)" xlink:href="#G"/><use transform="matrix(0.06172839506172839,0,0,0.06172839506172839,25.74074074074074,0)" xlink:href="#T"/><use transform="matrix(0.06172839506172839,0,0,0.06172839506172839,38.08641975308642,0)" xlink:href="#R"/><use transform="matrix(0.06172839506172839,0,0,0.06172839506172839,50.432098765432094,0)" xlink:href="#V"/><use transform="matrix(0.06172839506172839,0,0,0.06172839506172839,56.60493827160494,0)" xlink:href="#T"/></g><path d="M212-179c-10-28-35-45-73-45-59 0-87 40-87 99 0 60 29 101 89 101 43 0 62-24 78-52l27 14C228-24 195 4 139 4 59 4 22-46 18-125c-6-104 99-153 187-111 19 9 31 26 39 46" id="ac"/><path d="M100-194c63 0 86 42 84 106H49c0 40 14 67 53 68 26 1 43-12 49-29l28 8c-11 28-37 45-77 45C44 4 14-33 15-96c1-61 26-98 85-98zm52 81c6-60-76-77-97-28-3 7-6 17-6 28h103" id="ad"/><g id="i"><use transform="matrix(0.05,0,0,0.05,0,0)" xlink:href="#ac"/><use transform="matrix(0.05,0,0,0.05,12.950000000000001,0)" xlink:href="#M"/><use transform="matrix(0.05,0,0,0.05,18.900000000000002,0)" xlink:href="#ad"/><use transform="matrix(0.05,0,0,0.05,28.900000000000002,0)" xlink:href="#N"/><use transform="matrix(0.05,0,0,0.05,38.900000000000006,0)" xlink:href="#M"/><path d="M-.9 1.25h51.65v1.32H-.9z"/></g><path d="M117-194c89-4 53 116 60 194h-32v-121c0-31-8-49-39-48C34-167 62-67 57 0H25l-1-190h30c1 10-1 24 2 32 11-22 29-35 61-36" id="ae"/><path d="M96-169c-40 0-48 33-48 73s9 75 48 75c24 0 41-14 43-38l32 2c-6 37-31 61-74 61-59 0-76-41-82-99-10-93 101-131 147-64 4 7 5 14 7 22l-32 3c-4-21-16-35-41-35" id="af"/><g id="j"><use transform="matrix(0.05,0,0,0.05,0,0)" xlink:href="#ac"/><use transform="matrix(0.05,0,0,0.05,12.950000000000001,0)" xlink:href="#J"/><use transform="matrix(0.05,0,0,0.05,22.950000000000003,0)" xlink:href="#ae"/><use transform="matrix(0.05,0,0,0.05,32.95,0)" xlink:href="#L"/><use transform="matrix(0.05,0,0,0.05,37.95,0)" xlink:href="#N"/><use transform="matrix(0.05,0,0,0.05,47.95,0)" xlink:href="#af"/><use transform="matrix(0.05,0,0,0.05,56.95,0)" xlink:href="#L"/><use transform="matrix(0.05,0,0,0.05,61.95,0)" xlink:href="#J"/><path d="M-.9 1.25h73.75v1.32H-.9z"/></g><path fill="#333" d="M63-220v92h138v28H63V0H30v-248h175v28H63" id="ag"/><g id="k"><use transform="matrix(0.04938271604938272,0,0,0.04938271604938272,0,0)" xlink:href="#ag"/><use transform="matrix(0.04938271604938272,0,0,0.04938271604938272,10.814814814814815,0)" xlink:href="#H"/><use transform="matrix(0.04938271604938272,0,0,0.04938271604938272,20.69135802469136,0)" xlink:href="#F"/><use transform="matrix(0.04938271604938272,0,0,0.04938271604938272,26.567901234567902,0)" xlink:href="#Z"/><use transform="matrix(0.04938271604938272,0,0,0.04938271604938272,41.33333333333334,0)" xlink:href="#D"/><use transform="matrix(0.04938271604938272,0,0,0.04938271604938272,51.209876543209894,0)" xlink:href="#ab"/><use transform="matrix(0.04938271604938272,0,0,0.04938271604938272,55.111111111111114,0)" xlink:href="#E"/><use transform="matrix(0.04938271604938272,0,0,0.04938271604938272,64.98765432098767,0)" xlink:href="#F"/><use transform="matrix(0.04938271604938272,0,0,0.04938271604938272,70.86419753086422,0)" xlink:href="#G"/><use transform="matrix(0.04938271604938272,0,0,0.04938271604938272,74.76543209876546,0)" xlink:href="#H"/></g><path d="M137 0h-34L2-248h35l83 218 83-218h36" id="ah"/><path d="M24 0v-261h32V0H24" id="ai"/><path d="M85-194c31 0 48 13 60 33l-1-100h32l1 261h-30c-2-10 0-23-3-31C134-8 116 4 85 4 32 4 16-35 15-94c0-66 23-100 70-100zm9 24c-40 0-46 34-46 75 0 40 6 74 45 74 42 0 51-32 51-76 0-42-9-74-50-73" id="aj"/><g id="l"><use transform="matrix(0.05,0,0,0.05,0,0)" xlink:href="#ah"/><use transform="matrix(0.05,0,0,0.05,10.65,0)" xlink:href="#N"/><use transform="matrix(0.05,0,0,0.05,20.65,0)" xlink:href="#ai"/><use transform="matrix(0.05,0,0,0.05,24.599999999999998,0)" xlink:href="#P"/><use transform="matrix(0.05,0,0,0.05,28.549999999999997,0)" xlink:href="#aj"/><use transform="matrix(0.05,0,0,0.05,38.55,0)" xlink:href="#N"/><use transform="matrix(0.05,0,0,0.05,48.55,0)" xlink:href="#M"/><path d="M-.9 1.25h61.3v1.32H-.9z"/></g><path d="M63-220v92h138v28H63V0H30v-248h175v28H63" id="ak"/><path d="M210-169c-67 3-38 105-44 169h-31v-121c0-29-5-50-35-48C34-165 62-65 56 0H25l-1-190h30c1 10-1 24 2 32 10-44 99-50 107 0 11-21 27-35 58-36 85-2 47 119 55 194h-31v-121c0-29-5-49-35-48" id="al"/><path d="M84 4C-5 8 30-112 23-190h32v120c0 31 7 50 39 49 72-2 45-101 50-169h31l1 190h-30c-1-10 1-25-2-33-11 22-28 36-60 37" id="am"/><g id="m"><use transform="matrix(0.05,0,0,0.05,0,0)" xlink:href="#ak"/><use transform="matrix(0.05,0,0,0.05,10.950000000000001,0)" xlink:href="#J"/><use transform="matrix(0.05,0,0,0.05,20.950000000000003,0)" xlink:href="#M"/><use transform="matrix(0.05,0,0,0.05,26.900000000000002,0)" xlink:href="#al"/><use transform="matrix(0.05,0,0,0.05,41.85,0)" xlink:href="#am"/><use transform="matrix(0.05,0,0,0.05,51.85,0)" xlink:href="#ai"/><use transform="matrix(0.05,0,0,0.05,55.800000000000004,0)" xlink:href="#N"/><use transform="matrix(0.05,0,0,0.05,65.80000000000001,0)" xlink:href="#M"/><use transform="matrix(0.05,0,0,0.05,71.75000000000001,0)" xlink:href="#P"/><use transform="matrix(0.05,0,0,0.05,75.70000000000002,0)" xlink:href="#J"/><path d="M-.9 1.25h87.5v1.32H-.9z"/></g><path fill="#333" d="M30 0v-248h187v28H63v79h144v27H63v87h162V0H30" id="an"/><path fill="#333" d="M108 0H70L1-190h34L89-25l56-165h34" id="ao"/><g id="n"><use transform="matrix(0.04938271604938272,0,0,0.04938271604938272,0,0)" xlink:href="#an"/><use transform="matrix(0.04938271604938272,0,0,0.04938271604938272,11.851851851851853,0)" xlink:href="#R"/><use transform="matrix(0.04938271604938272,0,0,0.04938271604938272,21.7283950617284,0)" xlink:href="#ao"/><use transform="matrix(0.04938271604938272,0,0,0.04938271604938272,30.617283950617285,0)" xlink:href="#G"/><use transform="matrix(0.04938271604938272,0,0,0.04938271604938272,34.518518518518526,0)" xlink:href="#E"/></g><g id="o"><use transform="matrix(0.06172839506172839,0,0,0.06172839506172839,0,0)" xlink:href="#W"/><use transform="matrix(0.06172839506172839,0,0,0.06172839506172839,14.814814814814813,0)" xlink:href="#ab"/><use transform="matrix(0.06172839506172839,0,0,0.06172839506172839,19.691358024691354,0)" xlink:href="#V"/><use transform="matrix(0.06172839506172839,0,0,0.06172839506172839,25.864197530864192,0)" xlink:href="#T"/><use transform="matrix(0.06172839506172839,0,0,0.06172839506172839,38.20987654320987,0)" xlink:href="#F"/><use transform="matrix(0.06172839506172839,0,0,0.06172839506172839,45.55555555555555,0)" xlink:href="#R"/><use transform="matrix(0.06172839506172839,0,0,0.06172839506172839,57.90123456790123,0)" xlink:href="#E"/><use transform="matrix(0.06172839506172839,0,0,0.06172839506172839,70.24691358024691,0)" xlink:href="#V"/><use transform="matrix(0.06172839506172839,0,0,0.06172839506172839,76.41975308641975,0)" xlink:href="#G"/><use transform="matrix(0.06172839506172839,0,0,0.06172839506172839,81.29629629629629,0)" xlink:href="#ao"/><use transform="matrix(0.06172839506172839,0,0,0.06172839506172839,92.4074074074074,0)" xlink:href="#E"/></g><g id="p"><use transform="matrix(0.06172839506172839,0,0,0.06172839506172839,0,0)" xlink:href="#ag"/><use transform="matrix(0.06172839506172839,0,0,0.06172839506172839,13.518518518518517,0)" xlink:href="#H"/><use transform="matrix(0.06172839506172839,0,0,0.06172839506172839,25.864197530864196,0)" xlink:href="#F"/><use transform="matrix(0.06172839506172839,0,0,0.06172839506172839,33.20987654320987,0)" xlink:href="#Z"/><use transform="matrix(0.06172839506172839,0,0,0.06172839506172839,51.66666666666666,0)" xlink:href="#D"/><use transform="matrix(0.06172839506172839,0,0,0.06172839506172839,64.01234567901234,0)" xlink:href="#ab"/><use transform="matrix(0.06172839506172839,0,0,0.06172839506172839,68.88888888888889,0)" xlink:href="#E"/><use transform="matrix(0.06172839506172839,0,0,0.06172839506172839,81.23456790123457,0)" xlink:href="#F"/><use transform="matrix(0.06172839506172839,0,0,0.06172839506172839,88.58024691358025,0)" xlink:href="#G"/><use transform="matrix(0.06172839506172839,0,0,0.06172839506172839,93.4567901234568,0)" xlink:href="#H"/></g><g id="q"><use transform="matrix(0.06172839506172839,0,0,0.06172839506172839,0,0)" xlink:href="#an"/><use transform="matrix(0.06172839506172839,0,0,0.06172839506172839,14.814814814814813,0)" xlink:href="#C"/></g><path fill="#333" d="M137 0h-34L2-248h35l83 218 83-218h36" id="ap"/><g id="r"><use transform="matrix(0.06172839506172839,0,0,0.06172839506172839,0,0)" xlink:href="#ap"/><use transform="matrix(0.06172839506172839,0,0,0.06172839506172839,13.148148148148147,0)" xlink:href="#E"/><use transform="matrix(0.06172839506172839,0,0,0.06172839506172839,25.493827160493826,0)" xlink:href="#ab"/><use transform="matrix(0.06172839506172839,0,0,0.06172839506172839,30.370370370370367,0)" xlink:href="#G"/><use transform="matrix(0.06172839506172839,0,0,0.06172839506172839,35.24691358024691,0)" xlink:href="#Y"/><use transform="matrix(0.06172839506172839,0,0,0.06172839506172839,47.59259259259259,0)" xlink:href="#H"/></g><g id="s"><use transform="matrix(0.06172839506172839,0,0,0.06172839506172839,0,0)" xlink:href="#U"/><use transform="matrix(0.06172839506172839,0,0,0.06172839506172839,14.814814814814813,0)" xlink:href="#G"/><use transform="matrix(0.06172839506172839,0,0,0.06172839506172839,19.691358024691354,0)" xlink:href="#R"/><use transform="matrix(0.06172839506172839,0,0,0.06172839506172839,32.03703703703703,0)" xlink:href="#H"/></g><g id="t"><use transform="matrix(0.04938271604938272,0,0,0.04938271604938272,0,0)" xlink:href="#ag"/><use transform="matrix(0.04938271604938272,0,0,0.04938271604938272,10.814814814814815,0)" xlink:href="#H"/><use transform="matrix(0.04938271604938272,0,0,0.04938271604938272,20.69135802469136,0)" xlink:href="#F"/><use transform="matrix(0.04938271604938272,0,0,0.04938271604938272,26.567901234567902,0)" xlink:href="#Z"/><use transform="matrix(0.04938271604938272,0,0,0.04938271604938272,41.33333333333334,0)" xlink:href="#D"/><use transform="matrix(0.04938271604938272,0,0,0.04938271604938272,51.209876543209894,0)" xlink:href="#ab"/><use transform="matrix(0.04938271604938272,0,0,0.04938271604938272,55.111111111111114,0)" xlink:href="#E"/><use transform="matrix(0.04938271604938272,0,0,0.04938271604938272,64.98765432098767,0)" xlink:href="#F"/><use transform="matrix(0.04938271604938272,0,0,0.04938271604938272,70.86419753086422,0)" xlink:href="#G"/><use transform="matrix(0.04938271604938272,0,0,0.04938271604938272,74.76543209876546,0)" xlink:href="#H"/></g><g id="u"><use transform="matrix(0.04938271604938272,0,0,0.04938271604938272,0,0)" xlink:href="#ap"/><use transform="matrix(0.04938271604938272,0,0,0.04938271604938272,10.518518518518519,0)" xlink:href="#E"/><use transform="matrix(0.04938271604938272,0,0,0.04938271604938272,20.395061728395063,0)" xlink:href="#ab"/><use transform="matrix(0.04938271604938272,0,0,0.04938271604938272,24.296296296296298,0)" xlink:href="#G"/><use transform="matrix(0.04938271604938272,0,0,0.04938271604938272,28.19753086419753,0)" xlink:href="#Y"/><use transform="matrix(0.04938271604938272,0,0,0.04938271604938272,38.074074074074076,0)" xlink:href="#E"/><use transform="matrix(0.04938271604938272,0,0,0.04938271604938272,47.95061728395062,0)" xlink:href="#Y"/><use transform="matrix(0.04938271604938272,0,0,0.04938271604938272,57.827160493827165,0)" xlink:href="#H"/></g><g id="v"><use transform="matrix(0.04938271604938272,0,0,0.04938271604938272,0,0)" xlink:href="#an"/><use transform="matrix(0.04938271604938272,0,0,0.04938271604938272,11.851851851851853,0)" xlink:href="#R"/><use transform="matrix(0.04938271604938272,0,0,0.04938271604938272,21.7283950617284,0)" xlink:href="#ao"/><use transform="matrix(0.04938271604938272,0,0,0.04938271604938272,30.617283950617285,0)" xlink:href="#G"/><use transform="matrix(0.04938271604938272,0,0,0.04938271604938272,34.518518518518526,0)" xlink:href="#E"/><use transform="matrix(0.04938271604938272,0,0,0.04938271604938272,44.39506172839507,0)" xlink:href="#Y"/><use transform="matrix(0.04938271604938272,0,0,0.04938271604938272,54.27160493827161,0)" xlink:href="#H"/></g><g id="w"><use transform="matrix(0.04938271604938272,0,0,0.04938271604938272,0,0)" xlink:href="#Q"/><use transform="matrix(0.04938271604938272,0,0,0.04938271604938272,4.938271604938272,0)" xlink:href="#R"/><use transform="matrix(0.04938271604938272,0,0,0.04938271604938272,14.814814814814817,0)" xlink:href="#ao"/><use transform="matrix(0.04938271604938272,0,0,0.04938271604938272,23.703703703703706,0)" xlink:href="#E"/><use transform="matrix(0.04938271604938272,0,0,0.04938271604938272,33.580246913580254,0)" xlink:href="#ab"/><use transform="matrix(0.04938271604938272,0,0,0.04938271604938272,37.48148148148149,0)" xlink:href="#G"/><use transform="matrix(0.04938271604938272,0,0,0.04938271604938272,41.38271604938272,0)" xlink:href="#Y"/><use transform="matrix(0.04938271604938272,0,0,0.04938271604938272,51.25925925925927,0)" xlink:href="#E"/><use transform="matrix(0.04938271604938272,0,0,0.04938271604938272,61.13580246913581,0)" xlink:href="#Y"/><use transform="matrix(0.04938271604938272,0,0,0.04938271604938272,71.01234567901236,0)" xlink:href="#H"/></g><path fill="#333" d="M115-194c55 1 70 41 70 98S169 2 115 4C84 4 66-9 55-30l1 105H24l-1-265h31l2 30c10-21 28-34 59-34zm-8 174c40 0 45-34 45-75s-6-73-45-74c-42 0-51 32-51 76 0 43 10 73 51 73" id="aq"/><g id="x"><use transform="matrix(0.04938271604938272,0,0,0.04938271604938272,0,0)" xlink:href="#aa"/><use transform="matrix(0.04938271604938272,0,0,0.04938271604938272,12.790123456790125,0)" xlink:href="#E"/><use transform="matrix(0.04938271604938272,0,0,0.04938271604938272,22.66666666666667,0)" xlink:href="#Z"/><use transform="matrix(0.04938271604938272,0,0,0.04938271604938272,37.4320987654321,0)" xlink:href="#aq"/><use transform="matrix(0.04938271604938272,0,0,0.04938271604938272,47.308641975308646,0)" xlink:href="#H"/><use transform="matrix(0.04938271604938272,0,0,0.04938271604938272,57.18518518518519,0)" xlink:href="#C"/></g><path fill="#333" d="M240 0l2-218c-23 76-54 145-80 218h-23L58-218 59 0H30v-248h44l77 211c21-75 51-140 76-211h43V0h-30" id="ar"/><g id="y"><use transform="matrix(0.04938271604938272,0,0,0.04938271604938272,0,0)" xlink:href="#ar"/><use transform="matrix(0.04938271604938272,0,0,0.04938271604938272,14.765432098765434,0)" xlink:href="#E"/><use transform="matrix(0.04938271604938272,0,0,0.04938271604938272,24.641975308641978,0)" xlink:href="#ab"/></g><g id="z"><use transform="matrix(0.04938271604938272,0,0,0.04938271604938272,0,0)" xlink:href="#Q"/><use transform="matrix(0.04938271604938272,0,0,0.04938271604938272,4.938271604938272,0)" xlink:href="#R"/><use transform="matrix(0.04938271604938272,0,0,0.04938271604938272,14.814814814814817,0)" xlink:href="#S"/><use transform="matrix(0.04938271604938272,0,0,0.04938271604938272,24.69135802469136,0)" xlink:href="#F"/><use transform="matrix(0.04938271604938272,0,0,0.04938271604938272,30.567901234567906,0)" xlink:href="#T"/><use transform="matrix(0.04938271604938272,0,0,0.04938271604938272,40.44444444444445,0)" xlink:href="#C"/><use transform="matrix(0.04938271604938272,0,0,0.04938271604938272,49.33333333333334,0)" xlink:href="#E"/><use transform="matrix(0.04938271604938272,0,0,0.04938271604938272,59.209876543209894,0)" xlink:href="#Y"/><use transform="matrix(0.04938271604938272,0,0,0.04938271604938272,69.08641975308643,0)" xlink:href="#H"/><use transform="matrix(0.04938271604938272,0,0,0.04938271604938272,78.96296296296298,0)" xlink:href="#C"/></g><path d="M115-194c55 1 70 41 70 98S169 2 115 4C84 4 66-9 55-30l1 105H24l-1-265h31l2 30c10-21 28-34 59-34zm-8 174c40 0 45-34 45-75s-6-73-45-74c-42 0-51 32-51 76 0 43 10 73 51 73" id="as"/><g id="A"><use transform="matrix(0.05,0,0,0.05,0,0)" xlink:href="#ac"/><use transform="matrix(0.05,0,0,0.05,12.950000000000001,0)" xlink:href="#N"/><use transform="matrix(0.05,0,0,0.05,22.950000000000003,0)" xlink:href="#as"/><use transform="matrix(0.05,0,0,0.05,32.95,0)" xlink:href="#N"/><use transform="matrix(0.05,0,0,0.05,42.95,0)" xlink:href="#af"/><use transform="matrix(0.05,0,0,0.05,51.95,0)" xlink:href="#P"/><use transform="matrix(0.05,0,0,0.05,55.900000000000006,0)" xlink:href="#L"/><use transform="matrix(0.05,0,0,0.05,60.900000000000006,0)" xlink:href="#N"/><use transform="matrix(0.05,0,0,0.05,70.9,0)" xlink:href="#af"/><use transform="matrix(0.05,0,0,0.05,79.9,0)" xlink:href="#P"/><use transform="matrix(0.05,0,0,0.05,83.85000000000001,0)" xlink:href="#J"/><use transform="matrix(0.05,0,0,0.05,93.85000000000001,0)" xlink:href="#ae"/><path d="M-.9 1.25h105.65v1.32H-.9z"/></g></defs></g></svg>